<?xml version="1.0" standalone="no"?><!DOCTYPE svg PUBLIC "-//W3C//DTD SVG 1.1//EN" "http://www.w3.org/Graphics/SVG/1.1/DTD/svg11.dtd"><svg t="1578127316403" class="icon" viewBox="0 0 1107 1024" version="1.1" xmlns="http://www.w3.org/2000/svg" p-id="7495" xmlns:xlink="http://www.w3.org/1999/xlink" width="34.59375" height="32"><defs><style type="text/css"></style></defs><path d="M553.501028 0a243.154444 243.154444 0 1 1 0 486.360219 243.154444 243.154444 0 0 1 0-486.360219zM243.000451 537.793774a243.154444 243.154444 0 0 1 243.154444 243.103113 242.94912 242.94912 0 0 1-243.154444 243.000451 243.103113 243.103113 0 0 1 0-486.103564z m620.898491 0a243.154444 243.154444 0 0 1 243.154444 243.154444 243.205775 243.205775 0 0 1-243.154444 243.000451 243.103113 243.103113 0 0 1 0-486.154895z" p-id="7496" fill="#835F41"></path></svg>