<?xml version="1.0" standalone="no"?><!DOCTYPE svg PUBLIC "-//W3C//DTD SVG 1.1//EN" "http://www.w3.org/Graphics/SVG/1.1/DTD/svg11.dtd"><svg t="1578127520773" class="icon" viewBox="0 0 1024 1024" version="1.1" xmlns="http://www.w3.org/2000/svg" p-id="21883" xmlns:xlink="http://www.w3.org/1999/xlink" width="32" height="32"><defs><style type="text/css"></style></defs><path d="M512.003 960.145c-246.454 0-446.245-200.64-446.245-448.145 0-247.503 199.791-448.146 446.245-448.146S958.242 264.497 958.242 512 758.455 960.145 512.003 960.145z m0-812.263c-200.241 0-362.572 163.02-362.572 364.117 0 94.044 35.807 179.475 94.082 244.087 52.517-25.513 33.232-4.279 101.939-32.683 70.306-29.022 86.964-39.148 86.964-39.148l0.66-66.906s-26.335-20.076-34.514-83.026c-16.482 4.747-21.922-19.281-22.892-34.58-0.884-14.775-9.532-60.935 10.563-56.77-4.112-30.821-7.065-58.611-5.615-73.337 5.043-51.69 54.983-105.689 131.915-109.637 90.494 3.935 126.342 57.909 131.37 109.592 1.465 14.733-1.764 42.546-5.876 73.311 20.109-4.116 11.366 41.972 10.391 56.749-0.889 15.303-6.456 39.251-22.887 34.51-8.218 62.946-34.549 82.87-34.549 82.87l0.619 66.56s16.647 9.475 86.954 38.503c68.708 28.403 49.417 8.425 101.929 33.994 58.284-64.608 94.09-150.044 94.09-244.088 0-201.095-162.329-364.117-362.574-364.117l0.003-0.001z" p-id="21884" fill="#835F41"></path></svg>